<?xml version="1.0" encoding="UTF-8"?>
<svg width="38px" height="38px" viewBox="0 0 38 38" version="1.1" xmlns="http://www.w3.org/2000/svg" xmlns:xlink="http://www.w3.org/1999/xlink">
    <!-- Generator: Sketch 41 (35326) - http://www.bohemiancoding.com/sketch -->
    <title>Group</title>
    <desc>Created with Sketch.</desc>
    <defs></defs>
    <g id="Page-1" stroke="none" stroke-width="1" fill="none" fill-rule="evenodd">
        <g id="Artboard" transform="translate(-116.000000, -83.000000)">
            <g id="Group" transform="translate(116.000000, 83.000000)">
                <circle id="Oval" fill="#FFFFFF" cx="19" cy="19" r="19"></circle>
                <path d="M17.0234758,18.2822553 C17.0234758,18.2822553 18.9652158,18.1313907 18.9652158,15.758609 C18.9652158,13.3827484 17.3765195,12.2271463 15.3629391,12.2271463 L8.73926569,12.2271463 L8.73926569,25.4929664 L15.3629391,25.4929664 C15.3629391,25.4929664 19.4075467,25.6253578 19.4075467,21.5766451 C19.4065204,21.5756188 19.5830422,18.2822553 17.0234758,18.2822553 Z M11.6580335,14.5835073 L15.3629391,14.5835073 C15.3629391,14.5835073 16.2640215,14.5835073 16.2640215,15.9628406 C16.2640215,17.3442265 15.734456,17.544353 15.1330503,17.544353 L11.6580335,17.544353 L11.6580335,14.5835073 Z M15.1751281,23.1345528 L11.6580335,23.1345528 L11.6580335,19.588722 L15.3629391,19.588722 C15.3629391,19.588722 16.705326,19.5702488 16.705326,21.4103861 C16.705326,22.9621361 15.702641,23.1232636 15.1751281,23.1345528 Z M24.7996726,15.6005604 C19.9032446,15.6005604 19.9073498,20.6981411 19.9073498,20.6981411 C19.9073498,20.6981411 19.5727793,25.7690383 24.7996726,25.7690383 C24.7996726,25.7690383 29.1542196,26.0297159 29.1542196,22.2416808 L26.9148555,22.2416808 C26.9148555,22.2416808 26.9887484,23.6692497 24.8745917,23.6692497 C24.8745917,23.6692497 22.6331751,23.8252457 22.6331751,21.360098 L29.2250336,21.360098 C29.2260599,21.3590717 29.9526729,15.6005604 24.7996726,15.6005604 Z M26.7917008,19.588722 L22.6105967,19.588722 C22.6105967,19.588722 22.8835898,17.544353 24.8499607,17.544353 C26.8163317,17.544353 26.7917008,19.588722 26.7917008,19.588722 Z M27.3120296,13.0061001 L22.0605055,13.0061001 L22.0605055,14.6420058 L27.3120296,14.6420058 L27.3120296,13.0061001 Z" id="Shape" fill="#1A1A1A"></path>
            </g>
        </g>
    </g>
</svg>